<svg width="1200" height="900" viewBox="0 0 1200 900" fill="none" xmlns="http://www.w3.org/2000/svg">
  <rect width="1200" height="900" rx="48" fill="#F7F5EF"/>
  <path d="M0 160C190 80 340 72 520 130C730 198 900 240 1200 150V900H0V160Z" fill="#0B4A24"/>
  <path d="M0 340C170 270 360 270 520 330C710 400 920 470 1200 360V900H0V340Z" fill="#06381C"/>
  <circle cx="1020" cy="170" r="120" fill="#E3B437" fill-opacity="0.22"/>
  <rect x="180" y="150" width="230" height="560" rx="24" fill="#FFFFFF" fill-opacity="0.92"/>
  <path d="M290 210H300V275H365V285H300V350H290V285H225V275H290V210Z" fill="#D9A21B"/>
  <rect x="255" y="390" width="90" height="260" rx="26" fill="#0B4A24"/>
  <rect x="470" y="160" width="570" height="90" rx="20" fill="#FFFFFF" fill-opacity="0.12"/>
  <rect x="470" y="286" width="400" height="36" rx="18" fill="#FFFFFF" fill-opacity="0.18"/>
  <rect x="470" y="350" width="500" height="36" rx="18" fill="#FFFFFF" fill-opacity="0.12"/>
  <rect x="470" y="414" width="450" height="36" rx="18" fill="#FFFFFF" fill-opacity="0.12"/>
</svg>
